<svg width="75" height="22" viewBox="0 0 75 22" fill="none" xmlns="http://www.w3.org/2000/svg">
<path fill-rule="evenodd" clip-rule="evenodd" d="M69.7136 21.479C69.7136 21.479 68.4415 21.4951 66.3878 21.4056C65.3224 21.3041 64.3168 20.8445 63.521 20.0953L63.3223 20.7934C63.2222 21.1453 62.9269 21.3961 62.5771 21.4438C62.5372 21.4372 60.5262 21.432 60.5262 21.432C60.0434 21.432 59.6515 21.0574 59.6515 20.437V0.653322C59.6515 0.291832 59.9405 0 60.2967 0H62.8759C63.232 0 63.521 0.291832 63.521 0.653322V5.60493H63.5217V6.54275C64.1326 5.86817 64.558 5.57633 65.1969 5.49421C66.3139 5.4297 67.432 5.3874 68.5506 5.36736C69.3245 5.35489 69.7395 5.36076 69.7395 5.36076C72.5776 5.36076 75 7.69908 75 10.5749V16.2927C75 19.17 72.5517 21.479 69.7136 21.479ZM71.2593 11.5985C71.2593 10.2324 70.0215 9.22936 68.6738 9.22936C68.6738 9.22936 67.1442 9.24476 65.4166 9.24476C64.812 9.24476 64.3516 9.63705 64.0647 9.98094C63.8436 10.2449 63.7225 10.5807 63.7225 10.9283V14.5681C63.7225 16.1937 65.0184 17.5143 66.6222 17.5216L68.6738 17.5304C70.0215 17.5304 71.2593 16.5296 71.2593 15.1628V11.5985ZM56.9989 21.4562H54.969C54.5708 21.4562 54.2203 21.1644 54.1048 20.778L53.9117 20.1056C53.1385 21.0288 51.7006 21.4562 49.7371 21.4562H47.5897C44.2772 21.4562 42.6986 19.8512 42.6986 16.399C42.6986 12.9792 44.2772 11.4049 47.5897 11.4049L53.8536 11.3998C53.8921 11.4008 53.9304 11.3925 53.9654 11.3755C54.0004 11.3586 54.0312 11.3335 54.0554 11.3021C54.0797 11.2707 54.0968 11.2339 54.1053 11.1945C54.1139 11.1552 54.1137 11.1142 54.1048 11.0749C53.8361 9.98314 52.7522 9.22936 51.5844 9.22936C51.5844 9.22936 48.0809 9.20003 45.6906 9.32909H45.6829C45.3289 9.34448 45.0294 9.06878 45.0105 8.70949L44.8866 6.31398C44.8685 5.96275 45.128 5.65919 45.4751 5.62839L45.6039 5.6174C49.7371 5.26617 52.6501 5.3065 52.6501 5.3065C55.4875 5.3065 57.9099 7.64409 57.9099 10.5213V20.5323C57.9099 21.042 57.5027 21.4562 56.9989 21.4562ZM54.0383 15.1657C54.0335 15.0977 54.0041 15.0342 53.9562 14.9881C53.9082 14.9421 53.8452 14.917 53.7801 14.9179H48.048C47.109 14.9179 46.6611 15.2581 46.6611 16.2297V16.5215C46.6611 17.5011 47.109 17.9249 48.048 17.9249H51.3864C52.5402 17.9249 53.6108 17.1103 53.9264 16.0412C53.9271 16.0405 54.0607 15.5536 54.0383 15.1657ZM40.6274 21.4438H37.9188C37.5626 21.4438 37.2743 21.1519 37.2743 20.7905V0.653322C37.2743 0.291832 37.5626 0 37.9188 0H40.6274C40.9836 0 41.2726 0.291832 41.2726 0.653322V20.7905C41.2726 21.1519 40.9836 21.4438 40.6274 21.4438ZM34.5657 21.4438H31.8571C31.5009 21.4438 31.2119 21.1519 31.2119 20.7905V0.653322C31.2119 0.291832 31.5009 0 31.8571 0H34.5657C34.9219 0 35.2102 0.291832 35.2102 0.653322V20.7905C35.2102 21.1519 34.9219 21.4438 34.5657 21.4438ZM24.3763 21.4562H19.346C16.4967 21.4562 14.1869 19.1135 14.1869 16.226V10.6027C14.1869 7.71375 16.4967 5.37176 19.346 5.37176H24.3763C27.2256 5.37176 29.5354 7.71375 29.5354 10.6027V16.226C29.5354 19.1135 27.2256 21.4562 24.3763 21.4562ZM25.6659 11.6483C25.6659 10.3483 24.6268 9.29462 23.3442 9.29462H20.3781C19.0962 9.29462 18.0564 10.3483 18.0564 11.6483V15.3102C18.0564 16.6095 19.0962 17.6639 20.3781 17.6639H23.3442C24.6268 17.6639 25.6659 16.6095 25.6659 15.3102V11.6483ZM12.227 9.32909H12.22C9.82903 9.20003 6.32621 9.22936 6.32621 9.22936C4.97854 9.22936 3.74003 10.2324 3.74003 11.5985V15.1628C3.74003 16.5296 4.97854 17.5304 6.32621 17.5304C6.32621 17.5304 9.82903 17.5612 12.22 17.4315C12.5426 17.4168 12.8176 17.669 12.8344 17.9968L12.961 20.4517C12.9676 20.6241 12.9095 20.7924 12.7993 20.9206C12.6891 21.0488 12.5355 21.1269 12.3711 21.138L12.3061 21.1439C8.17279 21.4951 5.25983 21.4548 5.25983 21.4548C2.42245 21.4548 0 19.1157 0 16.2392V10.5213C0 7.64409 2.42245 5.3065 5.25983 5.3065C5.25983 5.3065 8.17279 5.26617 12.3061 5.6174L12.4348 5.62839C12.7819 5.65919 13.0422 5.96275 13.0233 6.31398L12.8994 8.71096C12.8805 9.06952 12.5811 9.34448 12.227 9.32909Z" fill="#F7323F"/>
</svg>
