<svg width="100" height="181" viewBox="0 0 100 181" fill="none" xmlns="http://www.w3.org/2000/svg">
<rect width="100" height="181" rx="8" fill="#EEEFF1"/>
<path d="M27.0122 123.498C27.0122 123 27.1142 122.559 27.3182 122.175C27.5282 121.791 27.8102 121.494 28.1642 121.284C28.5242 121.068 28.9232 120.96 29.3612 120.96C29.6852 120.96 30.0032 121.032 30.3152 121.176C30.6332 121.314 30.8852 121.5 31.0712 121.734V119.34H32.1062V126H31.0712V125.253C30.9032 125.493 30.6692 125.691 30.3692 125.847C30.0752 126.003 29.7362 126.081 29.3522 126.081C28.9202 126.081 28.5242 125.973 28.1642 125.757C27.8102 125.535 27.5282 125.229 27.3182 124.839C27.1142 124.443 27.0122 123.996 27.0122 123.498ZM31.0712 123.516C31.0712 123.174 30.9992 122.877 30.8552 122.625C30.7172 122.373 30.5342 122.181 30.3062 122.049C30.0782 121.917 29.8322 121.851 29.5682 121.851C29.3042 121.851 29.0582 121.917 28.8302 122.049C28.6022 122.175 28.4162 122.364 28.2722 122.616C28.1342 122.862 28.0652 123.156 28.0652 123.498C28.0652 123.84 28.1342 124.14 28.2722 124.398C28.4162 124.656 28.6022 124.854 28.8302 124.992C29.0642 125.124 29.3102 125.19 29.5682 125.19C29.8322 125.19 30.0782 125.124 30.3062 124.992C30.5342 124.86 30.7172 124.668 30.8552 124.416C30.9992 124.158 31.0712 123.858 31.0712 123.516ZM33.1118 123.498C33.1118 123 33.2138 122.559 33.4178 122.175C33.6278 121.791 33.9098 121.494 34.2638 121.284C34.6238 121.068 35.0198 120.96 35.4518 120.96C35.8418 120.96 36.1808 121.038 36.4688 121.194C36.7628 121.344 36.9968 121.533 37.1708 121.761V121.041H38.2058V126H37.1708V125.262C36.9968 125.496 36.7598 125.691 36.4598 125.847C36.1598 126.003 35.8178 126.081 35.4338 126.081C35.0078 126.081 34.6178 125.973 34.2638 125.757C33.9098 125.535 33.6278 125.229 33.4178 124.839C33.2138 124.443 33.1118 123.996 33.1118 123.498ZM37.1708 123.516C37.1708 123.174 37.0988 122.877 36.9548 122.625C36.8168 122.373 36.6338 122.181 36.4058 122.049C36.1778 121.917 35.9318 121.851 35.6678 121.851C35.4038 121.851 35.1578 121.917 34.9298 122.049C34.7018 122.175 34.5158 122.364 34.3718 122.616C34.2338 122.862 34.1648 123.156 34.1648 123.498C34.1648 123.84 34.2338 124.14 34.3718 124.398C34.5158 124.656 34.7018 124.854 34.9298 124.992C35.1638 125.124 35.4098 125.19 35.6678 125.19C35.9318 125.19 36.1778 125.124 36.4058 124.992C36.6338 124.86 36.8168 124.668 36.9548 124.416C37.0988 124.158 37.1708 123.858 37.1708 123.516ZM40.7504 121.878V124.623C40.7504 124.809 40.7924 124.944 40.8764 125.028C40.9664 125.106 41.1164 125.145 41.3264 125.145H41.9564V126H41.1464C40.6844 126 40.3304 125.892 40.0844 125.676C39.8384 125.46 39.7154 125.109 39.7154 124.623V121.878H39.1304V121.041H39.7154V119.808H40.7504V121.041H41.9564V121.878H40.7504ZM42.5601 123.498C42.5601 123 42.6621 122.559 42.8661 122.175C43.0761 121.791 43.3581 121.494 43.7121 121.284C44.0721 121.068 44.4681 120.96 44.9001 120.96C45.2901 120.96 45.6291 121.038 45.9171 121.194C46.2111 121.344 46.4451 121.533 46.6191 121.761V121.041H47.6541V126H46.6191V125.262C46.4451 125.496 46.2081 125.691 45.9081 125.847C45.6081 126.003 45.2661 126.081 44.8821 126.081C44.4561 126.081 44.0661 125.973 43.7121 125.757C43.3581 125.535 43.0761 125.229 42.8661 124.839C42.6621 124.443 42.5601 123.996 42.5601 123.498ZM46.6191 123.516C46.6191 123.174 46.5471 122.877 46.4031 122.625C46.2651 122.373 46.0821 122.181 45.8541 122.049C45.6261 121.917 45.3801 121.851 45.1161 121.851C44.8521 121.851 44.6061 121.917 44.3781 122.049C44.1501 122.175 43.9641 122.364 43.8201 122.616C43.6821 122.862 43.6131 123.156 43.6131 123.498C43.6131 123.84 43.6821 124.14 43.8201 124.398C43.9641 124.656 44.1501 124.854 44.3781 124.992C44.6121 125.124 44.8581 125.19 45.1161 125.19C45.3801 125.19 45.6261 125.124 45.8541 124.992C46.0821 124.86 46.2651 124.668 46.4031 124.416C46.5471 124.158 46.6191 123.858 46.6191 123.516ZM55.8846 123.399C55.8846 123.585 55.8726 123.753 55.8486 123.903H52.0596C52.0896 124.299 52.2366 124.617 52.5006 124.857C52.7646 125.097 53.0886 125.217 53.4726 125.217C54.0246 125.217 54.4146 124.986 54.6426 124.524H55.7496C55.5996 124.98 55.3266 125.355 54.9306 125.649C54.5406 125.937 54.0546 126.081 53.4726 126.081C52.9986 126.081 52.5726 125.976 52.1946 125.766C51.8226 125.55 51.5286 125.25 51.3126 124.866C51.1026 124.476 50.9976 124.026 50.9976 123.516C50.9976 123.006 51.0996 122.559 51.3036 122.175C51.5136 121.785 51.8046 121.485 52.1766 121.275C52.5546 121.065 52.9866 120.96 53.4726 120.96C53.9406 120.96 54.3576 121.062 54.7236 121.266C55.0896 121.47 55.3746 121.758 55.5786 122.13C55.7826 122.496 55.8846 122.919 55.8846 123.399ZM54.8136 123.075C54.8076 122.697 54.6726 122.394 54.4086 122.166C54.1446 121.938 53.8176 121.824 53.4276 121.824C53.0736 121.824 52.7706 121.938 52.5186 122.166C52.2666 122.388 52.1166 122.691 52.0686 123.075H54.8136ZM57.9202 121.761C58.0702 121.509 58.2682 121.314 58.5142 121.176C58.7662 121.032 59.0632 120.96 59.4052 120.96V122.022H59.1442C58.7422 122.022 58.4362 122.124 58.2262 122.328C58.0222 122.532 57.9202 122.886 57.9202 123.39V126H56.8942V121.041H57.9202V121.761ZM61.3743 121.761C61.5243 121.509 61.7223 121.314 61.9683 121.176C62.2203 121.032 62.5173 120.96 62.8593 120.96V122.022H62.5983C62.1963 122.022 61.8903 122.124 61.6803 122.328C61.4763 122.532 61.3743 122.886 61.3743 123.39V126H60.3483V121.041H61.3743V121.761ZM65.9534 126.081C65.4854 126.081 65.0624 125.976 64.6844 125.766C64.3064 125.55 64.0094 125.25 63.7934 124.866C63.5774 124.476 63.4694 124.026 63.4694 123.516C63.4694 123.012 63.5804 122.565 63.8024 122.175C64.0244 121.785 64.3274 121.485 64.7114 121.275C65.0954 121.065 65.5244 120.96 65.9984 120.96C66.4724 120.96 66.9014 121.065 67.2854 121.275C67.6694 121.485 67.9724 121.785 68.1944 122.175C68.4164 122.565 68.5274 123.012 68.5274 123.516C68.5274 124.02 68.4134 124.467 68.1854 124.857C67.9574 125.247 67.6454 125.55 67.2494 125.766C66.8594 125.976 66.4274 126.081 65.9534 126.081ZM65.9534 125.19C66.2174 125.19 66.4634 125.127 66.6914 125.001C66.9254 124.875 67.1144 124.686 67.2584 124.434C67.4024 124.182 67.4744 123.876 67.4744 123.516C67.4744 123.156 67.4054 122.853 67.2674 122.607C67.1294 122.355 66.9464 122.166 66.7184 122.04C66.4904 121.914 66.2444 121.851 65.9804 121.851C65.7164 121.851 65.4704 121.914 65.2424 122.04C65.0204 122.166 64.8434 122.355 64.7114 122.607C64.5794 122.853 64.5134 123.156 64.5134 123.516C64.5134 124.05 64.6484 124.464 64.9184 124.758C65.1944 125.046 65.5394 125.19 65.9534 125.19ZM70.5677 121.761C70.7177 121.509 70.9157 121.314 71.1617 121.176C71.4137 121.032 71.7107 120.96 72.0527 120.96V122.022H71.7917C71.3897 122.022 71.0837 122.124 70.8737 122.328C70.6697 122.532 70.5677 122.886 70.5677 123.39V126H69.5417V121.041H70.5677V121.761Z" fill="#8F9CA8"/>
<circle cx="50" cy="81" r="27.5" stroke="#8F9CA8" stroke-width="3"/>
<line x1="54.7279" y1="67.2984" x2="63.7984" y2="69.7721" stroke="#8F9CA8" stroke-width="2" stroke-linecap="round"/>
<line x1="36.2148" y1="68.9462" x2="45.1895" y2="66.1451" stroke="#8F9CA8" stroke-width="2" stroke-linecap="round"/>
<line x1="41.7025" y1="95.2556" x2="56.7556" y2="98.7975" stroke="#8F9CA8" stroke-width="2" stroke-linecap="round"/>
<ellipse cx="41" cy="79" rx="4.5" ry="6" fill="#8F9CA8"/>
<ellipse cx="59" cy="79" rx="4.5" ry="6" fill="#8F9CA8"/>
</svg>
