<svg width="631" height="354" viewBox="0 0 631 354" fill="none" xmlns="http://www.w3.org/2000/svg">
<rect width="631" height="354" rx="8" fill="white"/>
<path d="M21.54 32L19.14 27.83H17.835V32H16.125V21.575H19.725C20.525 21.575 21.2 21.715 21.75 21.995C22.31 22.275 22.725 22.65 22.995 23.12C23.275 23.59 23.415 24.115 23.415 24.695C23.415 25.375 23.215 25.995 22.815 26.555C22.425 27.105 21.82 27.48 21 27.68L23.58 32H21.54ZM17.835 26.465H19.725C20.365 26.465 20.845 26.305 21.165 25.985C21.495 25.665 21.66 25.235 21.66 24.695C21.66 24.155 21.5 23.735 21.18 23.435C20.86 23.125 20.375 22.97 19.725 22.97H17.835V26.465ZM33.1775 27.665C33.1775 27.975 33.1575 28.255 33.1175 28.505H26.8025C26.8525 29.165 27.0975 29.695 27.5375 30.095C27.9775 30.495 28.5175 30.695 29.1575 30.695C30.0775 30.695 30.7275 30.31 31.1075 29.54H32.9525C32.7025 30.3 32.2475 30.925 31.5875 31.415C30.9375 31.895 30.1275 32.135 29.1575 32.135C28.3675 32.135 27.6575 31.96 27.0275 31.61C26.4075 31.25 25.9175 30.75 25.5575 30.11C25.2075 29.46 25.0325 28.71 25.0325 27.86C25.0325 27.01 25.2025 26.265 25.5425 25.625C25.8925 24.975 26.3775 24.475 26.9975 24.125C27.6275 23.775 28.3475 23.6 29.1575 23.6C29.9375 23.6 30.6325 23.77 31.2425 24.11C31.8525 24.45 32.3275 24.93 32.6675 25.55C33.0075 26.16 33.1775 26.865 33.1775 27.665ZM31.3925 27.125C31.3825 26.495 31.1575 25.99 30.7175 25.61C30.2775 25.23 29.7325 25.04 29.0825 25.04C28.4925 25.04 27.9875 25.23 27.5675 25.61C27.1475 25.98 26.8975 26.485 26.8175 27.125H31.3925ZM34.2904 27.83C34.2904 27 34.4604 26.265 34.8004 25.625C35.1504 24.985 35.6204 24.49 36.2104 24.14C36.8104 23.78 37.4704 23.6 38.1904 23.6C38.8404 23.6 39.4054 23.73 39.8854 23.99C40.3754 24.24 40.7654 24.555 41.0554 24.935V23.735H42.7804V32H41.0554V30.77C40.7654 31.16 40.3704 31.485 39.8704 31.745C39.3704 32.005 38.8004 32.135 38.1604 32.135C37.4504 32.135 36.8004 31.955 36.2104 31.595C35.6204 31.225 35.1504 30.715 34.8004 30.065C34.4604 29.405 34.2904 28.66 34.2904 27.83ZM41.0554 27.86C41.0554 27.29 40.9354 26.795 40.6954 26.375C40.4654 25.955 40.1604 25.635 39.7804 25.415C39.4004 25.195 38.9904 25.085 38.5504 25.085C38.1104 25.085 37.7004 25.195 37.3204 25.415C36.9404 25.625 36.6304 25.94 36.3904 26.36C36.1604 26.77 36.0454 27.26 36.0454 27.83C36.0454 28.4 36.1604 28.9 36.3904 29.33C36.6304 29.76 36.9404 30.09 37.3204 30.32C37.7104 30.54 38.1204 30.65 38.5504 30.65C38.9904 30.65 39.4004 30.54 39.7804 30.32C40.1604 30.1 40.4654 29.78 40.6954 29.36C40.9354 28.93 41.0554 28.43 41.0554 27.86ZM44.4564 27.86C44.4564 27.01 44.6264 26.265 44.9664 25.625C45.3164 24.975 45.7964 24.475 46.4064 24.125C47.0164 23.775 47.7164 23.6 48.5064 23.6C49.5064 23.6 50.3314 23.84 50.9814 24.32C51.6414 24.79 52.0864 25.465 52.3164 26.345H50.4714C50.3214 25.935 50.0814 25.615 49.7514 25.385C49.4214 25.155 49.0064 25.04 48.5064 25.04C47.8064 25.04 47.2464 25.29 46.8264 25.79C46.4164 26.28 46.2114 26.97 46.2114 27.86C46.2114 28.75 46.4164 29.445 46.8264 29.945C47.2464 30.445 47.8064 30.695 48.5064 30.695C49.4964 30.695 50.1514 30.26 50.4714 29.39H52.3164C52.0764 30.23 51.6264 30.9 50.9664 31.4C50.3064 31.89 49.4864 32.135 48.5064 32.135C47.7164 32.135 47.0164 31.96 46.4064 31.61C45.7964 31.25 45.3164 30.75 44.9664 30.11C44.6264 29.46 44.4564 28.71 44.4564 27.86ZM58.2955 23.6C58.9255 23.6 59.4855 23.735 59.9755 24.005C60.4755 24.275 60.8655 24.675 61.1455 25.205C61.4355 25.735 61.5805 26.375 61.5805 27.125V32H59.8855V27.38C59.8855 26.64 59.7005 26.075 59.3305 25.685C58.9605 25.285 58.4555 25.085 57.8155 25.085C57.1755 25.085 56.6655 25.285 56.2855 25.685C55.9155 26.075 55.7305 26.64 55.7305 27.38V32H54.0205V20.9H55.7305V24.695C56.0205 24.345 56.3855 24.075 56.8255 23.885C57.2755 23.695 57.7655 23.6 58.2955 23.6ZM72.4132 32.105C71.4432 32.105 70.5482 31.88 69.7282 31.43C68.9182 30.97 68.2732 30.335 67.7932 29.525C67.3232 28.705 67.0882 27.785 67.0882 26.765C67.0882 25.745 67.3232 24.83 67.7932 24.02C68.2732 23.21 68.9182 22.58 69.7282 22.13C70.5482 21.67 71.4432 21.44 72.4132 21.44C73.3932 21.44 74.2882 21.67 75.0982 22.13C75.9182 22.58 76.5632 23.21 77.0332 24.02C77.5032 24.83 77.7382 25.745 77.7382 26.765C77.7382 27.785 77.5032 28.705 77.0332 29.525C76.5632 30.335 75.9182 30.97 75.0982 31.43C74.2882 31.88 73.3932 32.105 72.4132 32.105ZM72.4132 30.62C73.1032 30.62 73.7182 30.465 74.2582 30.155C74.7982 29.835 75.2182 29.385 75.5182 28.805C75.8282 28.215 75.9832 27.535 75.9832 26.765C75.9832 25.995 75.8282 25.32 75.5182 24.74C75.2182 24.16 74.7982 23.715 74.2582 23.405C73.7182 23.095 73.1032 22.94 72.4132 22.94C71.7232 22.94 71.1082 23.095 70.5682 23.405C70.0282 23.715 69.6032 24.16 69.2932 24.74C68.9932 25.32 68.8432 25.995 68.8432 26.765C68.8432 27.535 68.9932 28.215 69.2932 28.805C69.6032 29.385 70.0282 29.835 70.5682 30.155C71.1082 30.465 71.7232 30.62 72.4132 30.62ZM82.6159 30.47L84.9559 23.735H86.7709L83.6209 32H81.5809L78.4459 23.735H80.2759L82.6159 30.47ZM95.6385 27.665C95.6385 27.975 95.6185 28.255 95.5785 28.505H89.2635C89.3135 29.165 89.5585 29.695 89.9985 30.095C90.4385 30.495 90.9785 30.695 91.6185 30.695C92.5385 30.695 93.1885 30.31 93.5685 29.54H95.4135C95.1635 30.3 94.7085 30.925 94.0485 31.415C93.3985 31.895 92.5885 32.135 91.6185 32.135C90.8285 32.135 90.1185 31.96 89.4885 31.61C88.8685 31.25 88.3785 30.75 88.0185 30.11C87.6685 29.46 87.4935 28.71 87.4935 27.86C87.4935 27.01 87.6635 26.265 88.0035 25.625C88.3535 24.975 88.8385 24.475 89.4585 24.125C90.0885 23.775 90.8085 23.6 91.6185 23.6C92.3985 23.6 93.0935 23.77 93.7035 24.11C94.3135 24.45 94.7885 24.93 95.1285 25.55C95.4685 26.16 95.6385 26.865 95.6385 27.665ZM93.8535 27.125C93.8435 26.495 93.6185 25.99 93.1785 25.61C92.7385 25.23 92.1935 25.04 91.5435 25.04C90.9535 25.04 90.4485 25.23 90.0285 25.61C89.6085 25.98 89.3585 26.485 89.2785 27.125H93.8535ZM99.0313 24.935C99.2813 24.515 99.6113 24.19 100.021 23.96C100.441 23.72 100.936 23.6 101.506 23.6V25.37H101.071C100.401 25.37 99.8913 25.54 99.5413 25.88C99.2013 26.22 99.0313 26.81 99.0313 27.65V32H97.3213V23.735H99.0313V24.935ZM113.71 21.575V22.97H110.935V32H109.225V22.97H106.435V21.575H113.71ZM116.311 22.64C116.001 22.64 115.741 22.535 115.531 22.325C115.321 22.115 115.216 21.855 115.216 21.545C115.216 21.235 115.321 20.975 115.531 20.765C115.741 20.555 116.001 20.45 116.311 20.45C116.611 20.45 116.866 20.555 117.076 20.765C117.286 20.975 117.391 21.235 117.391 21.545C117.391 21.855 117.286 22.115 117.076 22.325C116.866 22.535 116.611 22.64 116.311 22.64ZM117.151 23.735V32H115.441V23.735H117.151ZM129.401 23.6C130.051 23.6 130.631 23.735 131.141 24.005C131.661 24.275 132.066 24.675 132.356 25.205C132.656 25.735 132.806 26.375 132.806 27.125V32H131.111V27.38C131.111 26.64 130.926 26.075 130.556 25.685C130.186 25.285 129.681 25.085 129.041 25.085C128.401 25.085 127.891 25.285 127.511 25.685C127.141 26.075 126.956 26.64 126.956 27.38V32H125.261V27.38C125.261 26.64 125.076 26.075 124.706 25.685C124.336 25.285 123.831 25.085 123.191 25.085C122.551 25.085 122.041 25.285 121.661 25.685C121.291 26.075 121.106 26.64 121.106 27.38V32H119.396V23.735H121.106V24.68C121.386 24.34 121.741 24.075 122.171 23.885C122.601 23.695 123.061 23.6 123.551 23.6C124.211 23.6 124.801 23.74 125.321 24.02C125.841 24.3 126.241 24.705 126.521 25.235C126.771 24.735 127.161 24.34 127.691 24.05C128.221 23.75 128.791 23.6 129.401 23.6ZM142.557 27.665C142.557 27.975 142.537 28.255 142.497 28.505H136.182C136.232 29.165 136.477 29.695 136.917 30.095C137.357 30.495 137.897 30.695 138.537 30.695C139.457 30.695 140.107 30.31 140.487 29.54H142.332C142.082 30.3 141.627 30.925 140.967 31.415C140.317 31.895 139.507 32.135 138.537 32.135C137.747 32.135 137.037 31.96 136.407 31.61C135.787 31.25 135.297 30.75 134.937 30.11C134.587 29.46 134.412 28.71 134.412 27.86C134.412 27.01 134.582 26.265 134.922 25.625C135.272 24.975 135.757 24.475 136.377 24.125C137.007 23.775 137.727 23.6 138.537 23.6C139.317 23.6 140.012 23.77 140.622 24.11C141.232 24.45 141.707 24.93 142.047 25.55C142.387 26.16 142.557 26.865 142.557 27.665ZM140.772 27.125C140.762 26.495 140.537 25.99 140.097 25.61C139.657 25.23 139.112 25.04 138.462 25.04C137.872 25.04 137.367 25.23 136.947 25.61C136.527 25.98 136.277 26.485 136.197 27.125H140.772Z" fill="#3A3F45"/>
<path d="M539.648 31.084C539.088 31.084 538.584 30.988 538.136 30.796C537.688 30.596 537.336 30.316 537.08 29.956C536.824 29.596 536.696 29.176 536.696 28.696H538.16C538.192 29.056 538.332 29.352 538.58 29.584C538.836 29.816 539.192 29.932 539.648 29.932C540.12 29.932 540.488 29.82 540.752 29.596C541.016 29.364 541.148 29.068 541.148 28.708C541.148 28.428 541.064 28.2 540.896 28.024C540.736 27.848 540.532 27.712 540.284 27.616C540.044 27.52 539.708 27.416 539.276 27.304C538.732 27.16 538.288 27.016 537.944 26.872C537.608 26.72 537.32 26.488 537.08 26.176C536.84 25.864 536.72 25.448 536.72 24.928C536.72 24.448 536.84 24.028 537.08 23.668C537.32 23.308 537.656 23.032 538.088 22.84C538.52 22.648 539.02 22.552 539.588 22.552C540.396 22.552 541.056 22.756 541.568 23.164C542.088 23.564 542.376 24.116 542.432 24.82H540.92C540.896 24.516 540.752 24.256 540.488 24.04C540.224 23.824 539.876 23.716 539.444 23.716C539.052 23.716 538.732 23.816 538.484 24.016C538.236 24.216 538.112 24.504 538.112 24.88C538.112 25.136 538.188 25.348 538.34 25.516C538.5 25.676 538.7 25.804 538.94 25.9C539.18 25.996 539.508 26.1 539.924 26.212C540.476 26.364 540.924 26.516 541.268 26.668C541.62 26.82 541.916 27.056 542.156 27.376C542.404 27.688 542.528 28.108 542.528 28.636C542.528 29.06 542.412 29.46 542.18 29.836C541.956 30.212 541.624 30.516 541.184 30.748C540.752 30.972 540.24 31.084 539.648 31.084ZM547.682 24.28C548.186 24.28 548.634 24.388 549.026 24.604C549.426 24.82 549.738 25.14 549.962 25.564C550.194 25.988 550.31 26.5 550.31 27.1V31H548.954V27.304C548.954 26.712 548.806 26.26 548.51 25.948C548.214 25.628 547.81 25.468 547.298 25.468C546.786 25.468 546.378 25.628 546.074 25.948C545.778 26.26 545.63 26.712 545.63 27.304V31H544.262V22.12H545.63V25.156C545.862 24.876 546.154 24.66 546.506 24.508C546.866 24.356 547.258 24.28 547.682 24.28ZM555.043 31.108C554.419 31.108 553.855 30.968 553.351 30.688C552.847 30.4 552.451 30 552.163 29.488C551.875 28.968 551.731 28.368 551.731 27.688C551.731 27.016 551.879 26.42 552.175 25.9C552.471 25.38 552.875 24.98 553.387 24.7C553.899 24.42 554.471 24.28 555.103 24.28C555.735 24.28 556.307 24.42 556.819 24.7C557.331 24.98 557.735 25.38 558.031 25.9C558.327 26.42 558.475 27.016 558.475 27.688C558.475 28.36 558.323 28.956 558.019 29.476C557.715 29.996 557.299 30.4 556.771 30.688C556.251 30.968 555.675 31.108 555.043 31.108ZM555.043 29.92C555.395 29.92 555.723 29.836 556.027 29.668C556.339 29.5 556.591 29.248 556.783 28.912C556.975 28.576 557.071 28.168 557.071 27.688C557.071 27.208 556.979 26.804 556.795 26.476C556.611 26.14 556.367 25.888 556.063 25.72C555.759 25.552 555.431 25.468 555.079 25.468C554.727 25.468 554.399 25.552 554.095 25.72C553.799 25.888 553.563 26.14 553.387 26.476C553.211 26.804 553.123 27.208 553.123 27.688C553.123 28.4 553.303 28.952 553.663 29.344C554.031 29.728 554.491 29.92 555.043 29.92ZM568.828 24.388L566.776 31H565.336L564.004 26.116L562.672 31H561.232L559.168 24.388H560.56L561.94 29.704L563.344 24.388H564.772L566.116 29.68L567.484 24.388H568.828ZM570.522 31.084C570.274 31.084 570.066 31 569.898 30.832C569.73 30.664 569.646 30.456 569.646 30.208C569.646 29.96 569.73 29.752 569.898 29.584C570.066 29.416 570.274 29.332 570.522 29.332C570.762 29.332 570.966 29.416 571.134 29.584C571.302 29.752 571.386 29.96 571.386 30.208C571.386 30.456 571.302 30.664 571.134 30.832C570.966 31 570.762 31.084 570.522 31.084ZM570.522 26.044C570.274 26.044 570.066 25.96 569.898 25.792C569.73 25.624 569.646 25.416 569.646 25.168C569.646 24.92 569.73 24.712 569.898 24.544C570.066 24.376 570.274 24.292 570.522 24.292C570.762 24.292 570.966 24.376 571.134 24.544C571.302 24.712 571.386 24.92 571.386 25.168C571.386 25.416 571.302 25.624 571.134 25.792C570.966 25.96 570.762 26.044 570.522 26.044ZM578.992 22.66C579.88 22.66 580.656 22.832 581.32 23.176C581.992 23.512 582.508 24 582.868 24.64C583.236 25.272 583.42 26.012 583.42 26.86C583.42 27.708 583.236 28.444 582.868 29.068C582.508 29.692 581.992 30.172 581.32 30.508C580.656 30.836 579.88 31 578.992 31H576.268V22.66H578.992ZM578.992 29.884C579.968 29.884 580.716 29.62 581.236 29.092C581.756 28.564 582.016 27.82 582.016 26.86C582.016 25.892 581.756 25.136 581.236 24.592C580.716 24.048 579.968 23.776 578.992 23.776H577.636V29.884H578.992ZM584.44 27.664C584.44 27 584.576 26.412 584.848 25.9C585.128 25.388 585.504 24.992 585.976 24.712C586.456 24.424 586.984 24.28 587.56 24.28C588.08 24.28 588.532 24.384 588.916 24.592C589.308 24.792 589.62 25.044 589.852 25.348V24.388H591.232V31H589.852V30.016C589.62 30.328 589.304 30.588 588.904 30.796C588.504 31.004 588.048 31.108 587.536 31.108C586.968 31.108 586.448 30.964 585.976 30.676C585.504 30.38 585.128 29.972 584.848 29.452C584.576 28.924 584.44 28.328 584.44 27.664ZM589.852 27.688C589.852 27.232 589.756 26.836 589.564 26.5C589.38 26.164 589.136 25.908 588.832 25.732C588.528 25.556 588.2 25.468 587.848 25.468C587.496 25.468 587.168 25.556 586.864 25.732C586.56 25.9 586.312 26.152 586.12 26.488C585.936 26.816 585.844 27.208 585.844 27.664C585.844 28.12 585.936 28.52 586.12 28.864C586.312 29.208 586.56 29.472 586.864 29.656C587.176 29.832 587.504 29.92 587.848 29.92C588.2 29.92 588.528 29.832 588.832 29.656C589.136 29.48 589.38 29.224 589.564 28.888C589.756 28.544 589.852 28.144 589.852 27.688ZM593.845 23.512C593.597 23.512 593.389 23.428 593.221 23.26C593.053 23.092 592.969 22.884 592.969 22.636C592.969 22.388 593.053 22.18 593.221 22.012C593.389 21.844 593.597 21.76 593.845 21.76C594.085 21.76 594.289 21.844 594.457 22.012C594.625 22.18 594.709 22.388 594.709 22.636C594.709 22.884 594.625 23.092 594.457 23.26C594.289 23.428 594.085 23.512 593.845 23.512ZM594.517 24.388V31H593.149V24.388H594.517ZM597.801 22.12V31H596.433V22.12H597.801ZM605.669 24.388L601.613 34.108H600.197L601.541 30.892L598.937 24.388H600.461L602.321 29.428L604.253 24.388H605.669Z" fill="#3A3F45"/>
<path d="M613.731 29L610.826 26L616.635 26L613.731 29Z" fill="#3A3F45"/>
<path d="M67.4089 331.176V330.18H69.6649V338.856H68.5609V331.176H67.4089ZM81.7358 338.856H80.6438L76.2518 332.196V338.856H75.1598V330.48H76.2518L80.6438 337.128V330.48H81.7358V338.856ZM86.5853 338.964C85.9693 338.964 85.4093 338.824 84.9053 338.544C84.4093 338.264 84.0173 337.868 83.7293 337.356C83.4493 336.836 83.3093 336.236 83.3093 335.556C83.3093 334.884 83.4533 334.292 83.7413 333.78C84.0373 333.26 84.4373 332.864 84.9413 332.592C85.4453 332.312 86.0093 332.172 86.6333 332.172C87.2573 332.172 87.8213 332.312 88.3253 332.592C88.8293 332.864 89.2253 333.256 89.5133 333.768C89.8093 334.28 89.9573 334.876 89.9573 335.556C89.9573 336.236 89.8053 336.836 89.5013 337.356C89.2053 337.868 88.8013 338.264 88.2893 338.544C87.7773 338.824 87.2093 338.964 86.5853 338.964ZM86.5853 338.004C86.9773 338.004 87.3453 337.912 87.6893 337.728C88.0333 337.544 88.3093 337.268 88.5173 336.9C88.7333 336.532 88.8413 336.084 88.8413 335.556C88.8413 335.028 88.7373 334.58 88.5293 334.212C88.3213 333.844 88.0493 333.572 87.7133 333.396C87.3773 333.212 87.0133 333.12 86.6213 333.12C86.2213 333.12 85.8533 333.212 85.5173 333.396C85.1893 333.572 84.9253 333.844 84.7253 334.212C84.5253 334.58 84.4253 335.028 84.4253 335.556C84.4253 336.092 84.5213 336.544 84.7133 336.912C84.9133 337.28 85.1773 337.556 85.5053 337.74C85.8333 337.916 86.1933 338.004 86.5853 338.004ZM93.9611 337.848L96.0011 332.28H97.1651L94.5851 338.856H93.3131L90.7331 332.28H91.9091L93.9611 337.848Z" fill="#3A3F45"/>
<path d="M19.5611 303.041C19.5611 301.665 19.7851 300.593 20.2331 299.825C20.6811 299.049 21.4651 298.661 22.5851 298.661C23.6971 298.661 24.4771 299.049 24.9251 299.825C25.3731 300.593 25.5971 301.665 25.5971 303.041C25.5971 304.441 25.3731 305.529 24.9251 306.305C24.4771 307.081 23.6971 307.469 22.5851 307.469C21.4651 307.469 20.6811 307.081 20.2331 306.305C19.7851 305.529 19.5611 304.441 19.5611 303.041ZM24.5171 303.041C24.5171 302.345 24.4691 301.757 24.3731 301.277C24.2851 300.789 24.0971 300.397 23.8091 300.101C23.5291 299.805 23.1211 299.657 22.5851 299.657C22.0411 299.657 21.6251 299.805 21.3371 300.101C21.0571 300.397 20.8691 300.789 20.7731 301.277C20.6851 301.757 20.6411 302.345 20.6411 303.041C20.6411 303.761 20.6851 304.365 20.7731 304.853C20.8691 305.341 21.0571 305.733 21.3371 306.029C21.6251 306.325 22.0411 306.473 22.5851 306.473C23.1211 306.473 23.5291 306.325 23.8091 306.029C24.0971 305.733 24.2851 305.341 24.3731 304.853C24.4691 304.365 24.5171 303.761 24.5171 303.041Z" fill="#3A3F45"/>
<path d="M25.0931 246.623H20.8811V249.359C21.0651 249.103 21.3371 248.895 21.6971 248.735C22.0571 248.567 22.4451 248.483 22.8611 248.483C23.5251 248.483 24.0651 248.623 24.4811 248.903C24.8971 249.175 25.1931 249.531 25.3691 249.971C25.5531 250.403 25.6451 250.863 25.6451 251.351C25.6451 251.927 25.5371 252.443 25.3211 252.899C25.1051 253.355 24.7731 253.715 24.3251 253.979C23.8851 254.243 23.3371 254.375 22.6811 254.375C21.8411 254.375 21.1611 254.159 20.6411 253.727C20.1211 253.295 19.8051 252.719 19.6931 251.999H20.7611C20.8651 252.455 21.0851 252.811 21.4211 253.067C21.7571 253.323 22.1811 253.451 22.6931 253.451C23.3251 253.451 23.8011 253.263 24.1211 252.887C24.4411 252.503 24.6011 251.999 24.6011 251.375C24.6011 250.751 24.4411 250.271 24.1211 249.935C23.8011 249.591 23.3291 249.419 22.7051 249.419C22.2811 249.419 21.9091 249.523 21.5891 249.731C21.2771 249.931 21.0491 250.207 20.9051 250.559H19.8731V245.663H25.0931V246.623ZM27.2163 249.923C27.2163 248.547 27.4403 247.475 27.8883 246.707C28.3363 245.931 29.1203 245.543 30.2403 245.543C31.3523 245.543 32.1323 245.931 32.5803 246.707C33.0283 247.475 33.2523 248.547 33.2523 249.923C33.2523 251.323 33.0283 252.411 32.5803 253.187C32.1323 253.963 31.3523 254.351 30.2403 254.351C29.1203 254.351 28.3363 253.963 27.8883 253.187C27.4403 252.411 27.2163 251.323 27.2163 249.923ZM32.1723 249.923C32.1723 249.227 32.1243 248.639 32.0283 248.159C31.9403 247.671 31.7523 247.279 31.4643 246.983C31.1843 246.687 30.7763 246.539 30.2403 246.539C29.6963 246.539 29.2803 246.687 28.9923 246.983C28.7123 247.279 28.5243 247.671 28.4283 248.159C28.3403 248.639 28.2963 249.227 28.2963 249.923C28.2963 250.643 28.3403 251.247 28.4283 251.735C28.5243 252.223 28.7123 252.615 28.9923 252.911C29.2803 253.207 29.6963 253.355 30.2403 253.355C30.7763 253.355 31.1843 253.207 31.4643 252.911C31.7523 252.615 31.9403 252.223 32.0283 251.735C32.1243 251.247 32.1723 250.643 32.1723 249.923Z" fill="#3A3F45"/>
<path d="M19.2731 193.554V192.558H21.5291V201.234H20.4251V193.554H19.2731ZM23.5249 196.806C23.5249 195.43 23.7489 194.358 24.1969 193.59C24.6449 192.814 25.4289 192.426 26.5489 192.426C27.6609 192.426 28.4409 192.814 28.8889 193.59C29.3369 194.358 29.5609 195.43 29.5609 196.806C29.5609 198.206 29.3369 199.294 28.8889 200.07C28.4409 200.846 27.6609 201.234 26.5489 201.234C25.4289 201.234 24.6449 200.846 24.1969 200.07C23.7489 199.294 23.5249 198.206 23.5249 196.806ZM28.4809 196.806C28.4809 196.11 28.4329 195.522 28.3369 195.042C28.2489 194.554 28.0609 194.162 27.7729 193.866C27.4929 193.57 27.0849 193.422 26.5489 193.422C26.0049 193.422 25.5889 193.57 25.3009 193.866C25.0209 194.162 24.8329 194.554 24.7369 195.042C24.6489 195.522 24.6049 196.11 24.6049 196.806C24.6049 197.526 24.6489 198.13 24.7369 198.618C24.8329 199.106 25.0209 199.498 25.3009 199.794C25.5889 200.09 26.0049 200.238 26.5489 200.238C27.0849 200.238 27.4929 200.09 27.7729 199.794C28.0609 199.498 28.2489 199.106 28.3369 198.618C28.4329 198.13 28.4809 197.526 28.4809 196.806ZM31.18 196.806C31.18 195.43 31.404 194.358 31.852 193.59C32.3 192.814 33.084 192.426 34.204 192.426C35.316 192.426 36.096 192.814 36.544 193.59C36.992 194.358 37.216 195.43 37.216 196.806C37.216 198.206 36.992 199.294 36.544 200.07C36.096 200.846 35.316 201.234 34.204 201.234C33.084 201.234 32.3 200.846 31.852 200.07C31.404 199.294 31.18 198.206 31.18 196.806ZM36.136 196.806C36.136 196.11 36.088 195.522 35.992 195.042C35.904 194.554 35.716 194.162 35.428 193.866C35.148 193.57 34.74 193.422 34.204 193.422C33.66 193.422 33.244 193.57 32.956 193.866C32.676 194.162 32.488 194.554 32.392 195.042C32.304 195.522 32.26 196.11 32.26 196.806C32.26 197.526 32.304 198.13 32.392 198.618C32.488 199.106 32.676 199.498 32.956 199.794C33.244 200.09 33.66 200.238 34.204 200.238C34.74 200.238 35.148 200.09 35.428 199.794C35.716 199.498 35.904 199.106 35.992 198.618C36.088 198.13 36.136 197.526 36.136 196.806Z" fill="#3A3F45"/>
<path d="M19.2731 140.437V139.441H21.5291V148.117H20.4251V140.437H19.2731ZM29.0569 140.389H24.8449V143.125C25.0289 142.869 25.3009 142.661 25.6609 142.501C26.0209 142.333 26.4089 142.249 26.8249 142.249C27.4889 142.249 28.0289 142.389 28.4449 142.669C28.8609 142.941 29.1569 143.297 29.3329 143.737C29.5169 144.169 29.6089 144.629 29.6089 145.117C29.6089 145.693 29.5009 146.209 29.2849 146.665C29.0689 147.121 28.7369 147.481 28.2889 147.745C27.8489 148.009 27.3009 148.141 26.6449 148.141C25.8049 148.141 25.1249 147.925 24.6049 147.493C24.0849 147.061 23.7689 146.485 23.6569 145.765H24.7249C24.8289 146.221 25.0489 146.577 25.3849 146.833C25.7209 147.089 26.1449 147.217 26.6569 147.217C27.2889 147.217 27.7649 147.029 28.0849 146.653C28.4049 146.269 28.5649 145.765 28.5649 145.141C28.5649 144.517 28.4049 144.037 28.0849 143.701C27.7649 143.357 27.2929 143.185 26.6689 143.185C26.2449 143.185 25.8729 143.289 25.5529 143.497C25.2409 143.697 25.0129 143.973 24.8689 144.325H23.8369V139.429H29.0569V140.389ZM31.18 143.689C31.18 142.313 31.404 141.241 31.852 140.473C32.3 139.697 33.084 139.309 34.204 139.309C35.316 139.309 36.096 139.697 36.544 140.473C36.992 141.241 37.216 142.313 37.216 143.689C37.216 145.089 36.992 146.177 36.544 146.953C36.096 147.729 35.316 148.117 34.204 148.117C33.084 148.117 32.3 147.729 31.852 146.953C31.404 146.177 31.18 145.089 31.18 143.689ZM36.136 143.689C36.136 142.993 36.088 142.405 35.992 141.925C35.904 141.437 35.716 141.045 35.428 140.749C35.148 140.453 34.74 140.305 34.204 140.305C33.66 140.305 33.244 140.453 32.956 140.749C32.676 141.045 32.488 141.437 32.392 141.925C32.304 142.405 32.26 142.993 32.26 143.689C32.26 144.409 32.304 145.013 32.392 145.501C32.488 145.989 32.676 146.381 32.956 146.677C33.244 146.973 33.66 147.121 34.204 147.121C34.74 147.121 35.148 146.973 35.428 146.677C35.716 146.381 35.904 145.989 35.992 145.501C36.088 145.013 36.136 144.409 36.136 143.689Z" fill="#3A3F45"/>
<path d="M19.4291 94.124C20.4451 93.308 21.2411 92.64 21.8171 92.12C22.3931 91.592 22.8771 91.044 23.2691 90.476C23.6691 89.9 23.8691 89.336 23.8691 88.784C23.8691 88.264 23.7411 87.856 23.4851 87.56C23.2371 87.256 22.8331 87.104 22.2731 87.104C21.7291 87.104 21.3051 87.276 21.0011 87.62C20.7051 87.956 20.5451 88.408 20.5211 88.976H19.4651C19.4971 88.08 19.7691 87.388 20.2811 86.9C20.7931 86.412 21.4531 86.168 22.2611 86.168C23.0851 86.168 23.7371 86.396 24.2171 86.852C24.7051 87.308 24.9491 87.936 24.9491 88.736C24.9491 89.4 24.7491 90.048 24.3491 90.68C23.9571 91.304 23.5091 91.856 23.0051 92.336C22.5011 92.808 21.8571 93.36 21.0731 93.992H25.2011V94.904H19.4291V94.124ZM26.5835 90.572C26.5835 89.196 26.8075 88.124 27.2555 87.356C27.7035 86.58 28.4875 86.192 29.6075 86.192C30.7195 86.192 31.4995 86.58 31.9475 87.356C32.3955 88.124 32.6195 89.196 32.6195 90.572C32.6195 91.972 32.3955 93.06 31.9475 93.836C31.4995 94.612 30.7195 95 29.6075 95C28.4875 95 27.7035 94.612 27.2555 93.836C26.8075 93.06 26.5835 91.972 26.5835 90.572ZM31.5395 90.572C31.5395 89.876 31.4915 89.288 31.3955 88.808C31.3075 88.32 31.1195 87.928 30.8315 87.632C30.5515 87.336 30.1435 87.188 29.6075 87.188C29.0635 87.188 28.6475 87.336 28.3595 87.632C28.0795 87.928 27.8915 88.32 27.7955 88.808C27.7075 89.288 27.6635 89.876 27.6635 90.572C27.6635 91.292 27.7075 91.896 27.7955 92.384C27.8915 92.872 28.0795 93.264 28.3595 93.56C28.6475 93.856 29.0635 94.004 29.6075 94.004C30.1435 94.004 30.5515 93.856 30.8315 93.56C31.1195 93.264 31.3075 92.872 31.3955 92.384C31.4915 91.896 31.5395 91.292 31.5395 90.572ZM34.2386 90.572C34.2386 89.196 34.4626 88.124 34.9106 87.356C35.3586 86.58 36.1426 86.192 37.2626 86.192C38.3746 86.192 39.1546 86.58 39.6026 87.356C40.0506 88.124 40.2746 89.196 40.2746 90.572C40.2746 91.972 40.0506 93.06 39.6026 93.836C39.1546 94.612 38.3746 95 37.2626 95C36.1426 95 35.3586 94.612 34.9106 93.836C34.4626 93.06 34.2386 91.972 34.2386 90.572ZM39.1946 90.572C39.1946 89.876 39.1466 89.288 39.0506 88.808C38.9626 88.32 38.7746 87.928 38.4866 87.632C38.2066 87.336 37.7986 87.188 37.2626 87.188C36.7186 87.188 36.3026 87.336 36.0146 87.632C35.7346 87.928 35.5466 88.32 35.4506 88.808C35.3626 89.288 35.3186 89.876 35.3186 90.572C35.3186 91.292 35.3626 91.896 35.4506 92.384C35.5466 92.872 35.7346 93.264 36.0146 93.56C36.3026 93.856 36.7186 94.004 37.2626 94.004C37.7986 94.004 38.2066 93.856 38.4866 93.56C38.7746 93.264 38.9626 92.872 39.0506 92.384C39.1466 91.896 39.1946 91.292 39.1946 90.572Z" fill="#3A3F45"/>
<path d="M556.55 332.364C556.606 331.628 556.89 331.052 557.402 330.636C557.914 330.22 558.578 330.012 559.394 330.012C559.938 330.012 560.406 330.112 560.798 330.312C561.198 330.504 561.498 330.768 561.698 331.104C561.906 331.44 562.01 331.82 562.01 332.244C562.01 332.74 561.866 333.168 561.578 333.528C561.298 333.888 560.93 334.12 560.474 334.224V334.284C560.994 334.412 561.406 334.664 561.71 335.04C562.014 335.416 562.166 335.908 562.166 336.516C562.166 336.972 562.062 337.384 561.854 337.752C561.646 338.112 561.334 338.396 560.918 338.604C560.502 338.812 560.002 338.916 559.418 338.916C558.57 338.916 557.874 338.696 557.33 338.256C556.786 337.808 556.482 337.176 556.418 336.36H557.474C557.53 336.84 557.726 337.232 558.062 337.536C558.398 337.84 558.846 337.992 559.406 337.992C559.966 337.992 560.39 337.848 560.678 337.56C560.974 337.264 561.122 336.884 561.122 336.42C561.122 335.82 560.922 335.388 560.522 335.124C560.122 334.86 559.518 334.728 558.71 334.728H558.434V333.816H558.722C559.458 333.808 560.014 333.688 560.39 333.456C560.766 333.216 560.954 332.848 560.954 332.352C560.954 331.928 560.814 331.588 560.534 331.332C560.262 331.076 559.87 330.948 559.358 330.948C558.862 330.948 558.462 331.076 558.158 331.332C557.854 331.588 557.674 331.932 557.618 332.364H556.55ZM563.473 331.176V330.18H565.729V338.856H564.625V331.176H563.473ZM577.8 338.856H576.708L572.316 332.196V338.856H571.224V330.48H572.316L576.708 337.128V330.48H577.8V338.856ZM582.649 338.964C582.033 338.964 581.473 338.824 580.969 338.544C580.473 338.264 580.081 337.868 579.793 337.356C579.513 336.836 579.373 336.236 579.373 335.556C579.373 334.884 579.517 334.292 579.805 333.78C580.101 333.26 580.501 332.864 581.005 332.592C581.509 332.312 582.073 332.172 582.697 332.172C583.321 332.172 583.885 332.312 584.389 332.592C584.893 332.864 585.289 333.256 585.577 333.768C585.873 334.28 586.021 334.876 586.021 335.556C586.021 336.236 585.869 336.836 585.565 337.356C585.269 337.868 584.865 338.264 584.353 338.544C583.841 338.824 583.273 338.964 582.649 338.964ZM582.649 338.004C583.041 338.004 583.409 337.912 583.753 337.728C584.097 337.544 584.373 337.268 584.581 336.9C584.797 336.532 584.905 336.084 584.905 335.556C584.905 335.028 584.801 334.58 584.593 334.212C584.385 333.844 584.113 333.572 583.777 333.396C583.441 333.212 583.077 333.12 582.685 333.12C582.285 333.12 581.917 333.212 581.581 333.396C581.253 333.572 580.989 333.844 580.789 334.212C580.589 334.58 580.489 335.028 580.489 335.556C580.489 336.092 580.585 336.544 580.777 336.912C580.977 337.28 581.241 337.556 581.569 337.74C581.897 337.916 582.257 338.004 582.649 338.004ZM590.025 337.848L592.065 332.28H593.229L590.649 338.856H589.377L586.797 332.28H587.973L590.025 337.848Z" fill="#3A3F45"/>
<path d="M231.739 334.344C231.291 334.168 230.947 333.912 230.707 333.576C230.467 333.24 230.347 332.832 230.347 332.352C230.347 331.92 230.455 331.532 230.671 331.188C230.887 330.836 231.207 330.56 231.631 330.36C232.063 330.152 232.583 330.048 233.191 330.048C233.799 330.048 234.315 330.152 234.739 330.36C235.171 330.56 235.495 330.836 235.711 331.188C235.935 331.532 236.047 331.92 236.047 332.352C236.047 332.816 235.923 333.224 235.675 333.576C235.427 333.92 235.087 334.176 234.655 334.344C235.151 334.496 235.543 334.764 235.831 335.148C236.127 335.524 236.275 335.98 236.275 336.516C236.275 337.036 236.147 337.492 235.891 337.884C235.635 338.268 235.271 338.568 234.799 338.784C234.335 338.992 233.799 339.096 233.191 339.096C232.583 339.096 232.047 338.992 231.583 338.784C231.127 338.568 230.771 338.268 230.515 337.884C230.259 337.492 230.131 337.036 230.131 336.516C230.131 335.98 230.275 335.52 230.563 335.136C230.851 334.752 231.243 334.488 231.739 334.344ZM234.991 332.484C234.991 331.996 234.831 331.62 234.511 331.356C234.191 331.092 233.751 330.96 233.191 330.96C232.639 330.96 232.203 331.092 231.883 331.356C231.563 331.62 231.403 332 231.403 332.496C231.403 332.944 231.567 333.304 231.895 333.576C232.231 333.848 232.663 333.984 233.191 333.984C233.727 333.984 234.159 333.848 234.487 333.576C234.823 333.296 234.991 332.932 234.991 332.484ZM233.191 334.824C232.599 334.824 232.115 334.964 231.739 335.244C231.363 335.516 231.175 335.928 231.175 336.48C231.175 336.992 231.355 337.404 231.715 337.716C232.083 338.028 232.575 338.184 233.191 338.184C233.807 338.184 234.295 338.028 234.655 337.716C235.015 337.404 235.195 336.992 235.195 336.48C235.195 335.944 235.011 335.536 234.643 335.256C234.275 334.968 233.791 334.824 233.191 334.824ZM247.92 338.856H246.828L242.436 332.196V338.856H241.344V330.48H242.436L246.828 337.128V330.48H247.92V338.856ZM252.77 338.964C252.154 338.964 251.594 338.824 251.09 338.544C250.594 338.264 250.202 337.868 249.914 337.356C249.634 336.836 249.494 336.236 249.494 335.556C249.494 334.884 249.638 334.292 249.926 333.78C250.222 333.26 250.622 332.864 251.126 332.592C251.63 332.312 252.194 332.172 252.818 332.172C253.442 332.172 254.006 332.312 254.51 332.592C255.014 332.864 255.41 333.256 255.698 333.768C255.994 334.28 256.142 334.876 256.142 335.556C256.142 336.236 255.99 336.836 255.686 337.356C255.39 337.868 254.986 338.264 254.474 338.544C253.962 338.824 253.394 338.964 252.77 338.964ZM252.77 338.004C253.162 338.004 253.53 337.912 253.874 337.728C254.218 337.544 254.494 337.268 254.702 336.9C254.918 336.532 255.026 336.084 255.026 335.556C255.026 335.028 254.922 334.58 254.714 334.212C254.506 333.844 254.234 333.572 253.898 333.396C253.562 333.212 253.198 333.12 252.806 333.12C252.406 333.12 252.038 333.212 251.702 333.396C251.374 333.572 251.11 333.844 250.91 334.212C250.71 334.58 250.61 335.028 250.61 335.556C250.61 336.092 250.706 336.544 250.898 336.912C251.098 337.28 251.362 337.556 251.69 337.74C252.018 337.916 252.378 338.004 252.77 338.004ZM260.145 337.848L262.185 332.28H263.349L260.769 338.856H259.497L256.917 332.28H258.093L260.145 337.848Z" fill="#3A3F45"/>
<path d="M393.829 331.176V330.18H396.085V338.856H394.981V331.176H393.829ZM402.916 332.244C402.74 331.356 402.192 330.912 401.272 330.912C400.56 330.912 400.028 331.188 399.676 331.74C399.324 332.284 399.152 333.184 399.16 334.44C399.344 334.024 399.648 333.7 400.072 333.468C400.504 333.228 400.984 333.108 401.512 333.108C402.336 333.108 402.992 333.364 403.48 333.876C403.976 334.388 404.224 335.096 404.224 336C404.224 336.544 404.116 337.032 403.9 337.464C403.692 337.896 403.372 338.24 402.94 338.496C402.516 338.752 402 338.88 401.392 338.88C400.568 338.88 399.924 338.696 399.46 338.328C398.996 337.96 398.672 337.452 398.488 336.804C398.304 336.156 398.212 335.356 398.212 334.404C398.212 331.468 399.236 330 401.284 330C402.068 330 402.684 330.212 403.132 330.636C403.58 331.06 403.844 331.596 403.924 332.244H402.916ZM401.284 334.032C400.94 334.032 400.616 334.104 400.312 334.248C400.008 334.384 399.76 334.596 399.568 334.884C399.384 335.164 399.292 335.508 399.292 335.916C399.292 336.524 399.468 337.02 399.82 337.404C400.172 337.78 400.676 337.968 401.332 337.968C401.892 337.968 402.336 337.796 402.664 337.452C403 337.1 403.168 336.628 403.168 336.036C403.168 335.412 403.008 334.924 402.688 334.572C402.368 334.212 401.9 334.032 401.284 334.032ZM415.893 338.856H414.801L410.409 332.196V338.856H409.317V330.48H410.409L414.801 337.128V330.48H415.893V338.856ZM420.742 338.964C420.126 338.964 419.566 338.824 419.062 338.544C418.566 338.264 418.174 337.868 417.886 337.356C417.606 336.836 417.466 336.236 417.466 335.556C417.466 334.884 417.61 334.292 417.898 333.78C418.194 333.26 418.594 332.864 419.098 332.592C419.602 332.312 420.166 332.172 420.79 332.172C421.414 332.172 421.978 332.312 422.482 332.592C422.986 332.864 423.382 333.256 423.67 333.768C423.966 334.28 424.114 334.876 424.114 335.556C424.114 336.236 423.962 336.836 423.658 337.356C423.362 337.868 422.958 338.264 422.446 338.544C421.934 338.824 421.366 338.964 420.742 338.964ZM420.742 338.004C421.134 338.004 421.502 337.912 421.846 337.728C422.19 337.544 422.466 337.268 422.674 336.9C422.89 336.532 422.998 336.084 422.998 335.556C422.998 335.028 422.894 334.58 422.686 334.212C422.478 333.844 422.206 333.572 421.87 333.396C421.534 333.212 421.17 333.12 420.778 333.12C420.378 333.12 420.01 333.212 419.674 333.396C419.346 333.572 419.082 333.844 418.882 334.212C418.682 334.58 418.582 335.028 418.582 335.556C418.582 336.092 418.678 336.544 418.87 336.912C419.07 337.28 419.334 337.556 419.662 337.74C419.99 337.916 420.35 338.004 420.742 338.004ZM428.118 337.848L430.158 332.28H431.322L428.742 338.856H427.47L424.89 332.28H426.066L428.118 337.848Z" fill="#3A3F45"/>
<line x1="477.749" y1="93.6155" x2="477.579" y2="305.791" stroke="#3A3F45" stroke-width="1.5" stroke-linecap="round"/>
<line x1="66.9529" y1="306.041" x2="616" y2="306.041" stroke="#BAC2CA" stroke-miterlimit="16" stroke-dasharray="8 8"/>
<line x1="66.9529" y1="252.924" x2="616" y2="252.924" stroke="#BAC2CA" stroke-miterlimit="16" stroke-dasharray="8 8"/>
<line x1="66.9529" y1="199.806" x2="616" y2="199.806" stroke="#BAC2CA" stroke-miterlimit="16" stroke-dasharray="8 8"/>
<line x1="66.9529" y1="146.689" x2="616" y2="146.689" stroke="#BAC2CA" stroke-miterlimit="16" stroke-dasharray="8 8"/>
<line x1="66.9529" y1="93.5721" x2="616" y2="93.5721" stroke="#BAC2CA" stroke-miterlimit="16" stroke-dasharray="8 8"/>
<mask id="mask0" mask-type="alpha" maskUnits="userSpaceOnUse" x="66" y="94" width="550" height="213">
<rect x="66.9529" y="94.072" width="549.047" height="212.468" fill="#C4C4C4"/>
</mask>
<g mask="url(#mask0)">
<path opacity="0.2" d="M156.784 201.499C112.358 200.449 70.1125 249.762 58.6794 270.324V307.748H648.341L628.034 145.378C582.907 154.432 534.771 136.324 521.01 135.873C489.978 135.873 443.701 187.498 423.012 214.623C406.026 238.773 384.357 243.935 375.647 243.498C335.141 244.548 304.326 190.561 293.982 163.436C284.835 132.986 274.538 126.686 269.482 126.686C261 126.666 248.249 135.611 235.183 166.061C222.116 196.511 201.428 204.998 192.717 205.436C180.533 206.048 166.04 201.499 156.784 201.499Z" fill="url(#paint0_linear)"/>
<path d="M156.784 201.499L156.761 202.499C156.769 202.499 156.776 202.499 156.784 202.499L156.784 201.499ZM192.717 205.436L192.667 204.437L192.717 205.436ZM269.482 126.686L269.48 127.686L269.482 127.686L269.482 126.686ZM293.982 163.436L293.024 163.724C293.031 163.747 293.039 163.77 293.047 163.792L293.982 163.436ZM375.647 243.498L375.697 242.499C375.671 242.498 375.646 242.498 375.621 242.498L375.647 243.498ZM423.012 214.623L422.217 214.017C422.209 214.027 422.202 214.037 422.194 214.048L423.012 214.623ZM521.01 135.873L521.043 134.874C521.032 134.873 521.021 134.873 521.01 134.873V135.873ZM59.5534 270.81C65.2067 260.643 78.5458 243.267 96.0036 228.572C113.477 213.864 134.909 201.982 156.761 202.499L156.808 200.499C134.234 199.966 112.33 212.215 94.7156 227.042C77.0857 241.882 63.5853 259.443 57.8055 269.838L59.5534 270.81ZM156.784 202.499C161.304 202.499 167.126 203.613 173.486 204.683C179.785 205.743 186.553 206.747 192.767 206.435L192.667 204.437C186.696 204.737 180.126 203.772 173.818 202.711C167.572 201.66 161.52 200.499 156.784 200.499L156.784 202.499ZM192.767 206.435C201.921 205.975 222.911 197.195 236.102 166.455L234.264 165.667C221.322 195.826 200.935 204.022 192.667 204.437L192.767 206.435ZM236.102 166.455C242.607 151.295 249.002 141.566 254.768 135.645C260.537 129.72 265.602 127.677 269.48 127.686L269.484 125.686C264.879 125.675 259.328 128.095 253.335 134.25C247.338 140.408 240.825 150.377 234.264 165.667L236.102 166.455ZM269.482 127.686C271.594 127.686 275.175 129.019 279.42 134.271C283.658 139.513 288.471 148.566 293.024 163.724L294.939 163.148C290.346 147.856 285.437 138.533 280.975 133.013C276.521 127.503 272.426 125.686 269.482 125.686L269.482 127.686ZM293.047 163.792C298.249 177.433 308.59 197.815 322.737 214.675C336.86 231.506 354.955 245.035 375.672 244.498L375.621 242.498C355.832 243.011 338.267 230.071 324.269 213.39C310.297 196.738 300.058 176.564 294.916 163.08L293.047 163.792ZM375.596 244.497C384.657 244.952 406.65 239.624 423.83 215.198L422.194 214.048C405.402 237.922 384.058 242.919 375.697 242.499L375.596 244.497ZM423.807 215.229C434.127 201.699 450.827 182.062 468.803 165.818C477.791 157.696 487.074 150.444 496.019 145.227C504.98 140.001 513.509 136.873 521.01 136.873V134.873C512.995 134.873 504.102 138.198 495.012 143.5C485.905 148.81 476.508 156.16 467.462 164.334C449.368 180.684 432.586 200.422 422.217 214.017L423.807 215.229ZM520.978 136.873C524.299 136.982 529.774 138.168 536.971 139.797C544.118 141.415 552.859 143.444 562.584 145.175C582.027 148.635 605.487 150.922 628.23 146.359L627.837 144.398C605.454 148.889 582.282 146.649 562.935 143.206C553.265 141.485 544.572 139.468 537.413 137.847C530.304 136.237 524.602 134.99 521.043 134.874L520.978 136.873Z" fill="#F7323F"/>
<circle cx="477.314" cy="155.811" r="4" fill="white" stroke="#F7323F" stroke-width="2"/>
</g>
<path d="M459.112 80.124C460.128 79.308 460.924 78.64 461.5 78.12C462.076 77.592 462.56 77.044 462.952 76.476C463.352 75.9 463.552 75.336 463.552 74.784C463.552 74.264 463.424 73.856 463.168 73.56C462.92 73.256 462.516 73.104 461.956 73.104C461.412 73.104 460.988 73.276 460.684 73.62C460.388 73.956 460.228 74.408 460.204 74.976H459.148C459.18 74.08 459.452 73.388 459.964 72.9C460.476 72.412 461.136 72.168 461.944 72.168C462.768 72.168 463.42 72.396 463.9 72.852C464.388 73.308 464.632 73.936 464.632 74.736C464.632 75.4 464.432 76.048 464.032 76.68C463.64 77.304 463.192 77.856 462.688 78.336C462.184 78.808 461.54 79.36 460.756 79.992H464.884V80.904H459.112V80.124ZM465.978 73.32V72.324H468.234V81H467.13V73.32H465.978ZM480.305 81H479.213L474.821 74.34V81H473.729V72.624H474.821L479.213 79.272V72.624H480.305V81ZM485.155 81.108C484.539 81.108 483.979 80.968 483.475 80.688C482.979 80.408 482.587 80.012 482.299 79.5C482.019 78.98 481.879 78.38 481.879 77.7C481.879 77.028 482.023 76.436 482.311 75.924C482.607 75.404 483.007 75.008 483.511 74.736C484.015 74.456 484.579 74.316 485.203 74.316C485.827 74.316 486.391 74.456 486.895 74.736C487.399 75.008 487.795 75.4 488.083 75.912C488.379 76.424 488.527 77.02 488.527 77.7C488.527 78.38 488.375 78.98 488.071 79.5C487.775 80.012 487.371 80.408 486.859 80.688C486.347 80.968 485.779 81.108 485.155 81.108ZM485.155 80.148C485.547 80.148 485.915 80.056 486.259 79.872C486.603 79.688 486.879 79.412 487.087 79.044C487.303 78.676 487.411 78.228 487.411 77.7C487.411 77.172 487.307 76.724 487.099 76.356C486.891 75.988 486.619 75.716 486.283 75.54C485.947 75.356 485.583 75.264 485.191 75.264C484.791 75.264 484.423 75.356 484.087 75.54C483.759 75.716 483.495 75.988 483.295 76.356C483.095 76.724 482.995 77.172 482.995 77.7C482.995 78.236 483.091 78.688 483.283 79.056C483.483 79.424 483.747 79.7 484.075 79.884C484.403 80.06 484.763 80.148 485.155 80.148ZM492.531 79.992L494.571 74.424H495.735L493.155 81H491.883L489.303 74.424H490.479L492.531 79.992Z" fill="#3A3F45"/>
<defs>
<linearGradient id="paint0_linear" x1="353.51" y1="126.686" x2="353.026" y2="307.748" gradientUnits="userSpaceOnUse">
<stop stop-color="#F7323F"/>
<stop offset="1" stop-color="#F5F6F8"/>
</linearGradient>
</defs>
</svg>
