<svg width="75" height="22" viewBox="0 0 75 22" fill="none" xmlns="http://www.w3.org/2000/svg">
<path fill-rule="evenodd" clip-rule="evenodd" d="M69.7136 21.9135C69.7136 21.9135 68.4415 21.9297 66.3878 21.8402C65.3224 21.7387 64.3168 21.2791 63.521 20.5299L63.3223 21.228C63.2222 21.5799 62.9269 21.8307 62.5771 21.8783C62.5372 21.8717 60.5262 21.8666 60.5262 21.8666C60.0434 21.8666 59.6515 21.4919 59.6515 20.8716V1.08789C59.6515 0.726402 59.9405 0.43457 60.2967 0.43457H62.8759C63.232 0.43457 63.521 0.726402 63.521 1.08789V6.0395H63.5217V6.97732C64.1326 6.30274 64.558 6.0109 65.1969 5.92878C66.3139 5.86427 67.432 5.82197 68.5506 5.80193C69.3245 5.78946 69.7395 5.79533 69.7395 5.79533C72.5776 5.79533 75 8.13365 75 11.0094V16.7273C75 19.6045 72.5517 21.9135 69.7136 21.9135ZM71.2593 12.0331C71.2593 10.667 70.0215 9.66393 68.6738 9.66393C68.6738 9.66393 67.1442 9.67933 65.4166 9.67933C64.812 9.67933 64.3516 10.0716 64.0647 10.4155C63.8436 10.6795 63.7225 11.0153 63.7225 11.3629V15.0027C63.7225 16.6283 65.0184 17.9489 66.6222 17.9562L68.6738 17.965C70.0215 17.965 71.2593 16.9641 71.2593 15.5974V12.0331ZM56.9989 21.8908H54.969C54.5708 21.8908 54.2203 21.599 54.1048 21.2126L53.9117 20.5402C53.1385 21.4633 51.7006 21.8908 49.7371 21.8908H47.5897C44.2772 21.8908 42.6986 20.2857 42.6986 16.8336C42.6986 13.4138 44.2772 11.8395 47.5897 11.8395L53.8536 11.8343C53.8921 11.8353 53.9304 11.827 53.9654 11.8101C54.0004 11.7931 54.0312 11.768 54.0554 11.7366C54.0797 11.7053 54.0968 11.6685 54.1053 11.6291C54.1139 11.5897 54.1137 11.5488 54.1048 11.5095C53.8361 10.4177 52.7522 9.66393 51.5844 9.66393C51.5844 9.66393 48.0809 9.6346 45.6906 9.76366H45.6829C45.3289 9.77905 45.0294 9.50335 45.0105 9.14406L44.8866 6.74855C44.8685 6.39733 45.128 6.09376 45.4751 6.06296L45.6039 6.05197C49.7371 5.70074 52.6501 5.74107 52.6501 5.74107C55.4875 5.74107 57.9099 8.07866 57.9099 10.9559V20.9669C57.9099 21.4765 57.5027 21.8908 56.9989 21.8908ZM54.0383 15.6003C54.0335 15.5323 54.0041 15.4688 53.9562 15.4227C53.9082 15.3767 53.8452 15.3515 53.7801 15.3525H48.048C47.109 15.3525 46.6611 15.6927 46.6611 16.6642V16.9561C46.6611 17.9357 47.109 18.3595 48.048 18.3595H51.3864C52.5402 18.3595 53.6108 17.5449 53.9264 16.4758C53.9271 16.4751 54.0607 15.9882 54.0383 15.6003ZM40.6274 21.8783H37.9188C37.5626 21.8783 37.2743 21.5865 37.2743 21.225V1.08789C37.2743 0.726402 37.5626 0.43457 37.9188 0.43457H40.6274C40.9836 0.43457 41.2726 0.726402 41.2726 1.08789V21.225C41.2726 21.5865 40.9836 21.8783 40.6274 21.8783ZM34.5657 21.8783H31.8571C31.5009 21.8783 31.2119 21.5865 31.2119 21.225V1.08789C31.2119 0.726402 31.5009 0.43457 31.8571 0.43457H34.5657C34.9219 0.43457 35.2102 0.726402 35.2102 1.08789V21.225C35.2102 21.5865 34.9219 21.8783 34.5657 21.8783ZM24.3763 21.8908H19.346C16.4967 21.8908 14.1869 19.5481 14.1869 16.6606V11.0373C14.1869 8.14832 16.4967 5.80633 19.346 5.80633H24.3763C27.2256 5.80633 29.5354 8.14832 29.5354 11.0373V16.6606C29.5354 19.5481 27.2256 21.8908 24.3763 21.8908ZM25.6659 12.0829C25.6659 10.7829 24.6268 9.72919 23.3442 9.72919H20.3781C19.0962 9.72919 18.0564 10.7829 18.0564 12.0829V15.7447C18.0564 17.0441 19.0962 18.0985 20.3781 18.0985H23.3442C24.6268 18.0985 25.6659 17.0441 25.6659 15.7447V12.0829ZM12.227 9.76366H12.22C9.82903 9.6346 6.32621 9.66393 6.32621 9.66393C4.97854 9.66393 3.74003 10.667 3.74003 12.0331V15.5974C3.74003 16.9641 4.97854 17.965 6.32621 17.965C6.32621 17.965 9.82903 17.9958 12.22 17.866C12.5426 17.8514 12.8176 18.1036 12.8344 18.4314L12.961 20.8863C12.9676 21.0587 12.9095 21.227 12.7993 21.3552C12.6891 21.4834 12.5355 21.5614 12.3711 21.5726L12.3061 21.5784C8.17279 21.9297 5.25983 21.8893 5.25983 21.8893C2.42245 21.8893 0 19.5503 0 16.6738V10.9559C0 8.07866 2.42245 5.74107 5.25983 5.74107C5.25983 5.74107 8.17279 5.70074 12.3061 6.05197L12.4348 6.06296C12.7819 6.09376 13.0422 6.39733 13.0233 6.74855L12.8994 9.14553C12.8805 9.50409 12.5811 9.77905 12.227 9.76366Z" fill="#F7323F"/>
</svg>
